<svg width="18" height="18" viewBox="0 0 18 18" fill="none" xmlns="http://www.w3.org/2000/svg">
<path d="M12.6946 2.04667V0.833333C12.6946 0.514444 12.4302 0.25 12.1113 0.25C11.7924 0.25 11.528 0.514444 11.528 0.833333V2H6.4724V0.833333C6.4724 0.514444 6.20796 0.25 5.88907 0.25C5.57018 0.25 5.30573 0.514444 5.30573 0.833333V2.04667C3.20573 2.24111 2.18684 3.49333 2.03129 5.35222C2.01573 5.57778 2.2024 5.76444 2.42018 5.76444H15.5802C15.8057 5.76444 15.9924 5.57 15.9691 5.35222C15.8135 3.49333 14.7946 2.24111 12.6946 2.04667Z" fill="url(#paint0_linear_4425_10902)"/>
<path d="M15.2222 6.93118H2.77778C2.35 6.93118 2 7.28118 2 7.70896V12.5001C2 14.8334 3.16667 16.389 5.88889 16.389H12.1111C14.8333 16.389 16 14.8334 16 12.5001V7.70896C16 7.28118 15.65 6.93118 15.2222 6.93118ZM6.83 13.4412C6.75222 13.5112 6.66667 13.5656 6.57333 13.6045C6.48 13.6434 6.37889 13.6667 6.27778 13.6667C6.17667 13.6667 6.07556 13.6434 5.98222 13.6045C5.88889 13.5656 5.80333 13.5112 5.72556 13.4412C5.58556 13.2934 5.5 13.0912 5.5 12.889C5.5 12.6867 5.58556 12.4845 5.72556 12.3367C5.80333 12.2667 5.88889 12.2123 5.98222 12.1734C6.16889 12.0956 6.38667 12.0956 6.57333 12.1734C6.66667 12.2123 6.75222 12.2667 6.83 12.3367C6.97 12.4845 7.05556 12.6867 7.05556 12.889C7.05556 13.0912 6.97 13.2934 6.83 13.4412ZM6.99333 10.4623C6.95444 10.5556 6.9 10.6412 6.83 10.719C6.75222 10.789 6.66667 10.8434 6.57333 10.8823C6.48 10.9212 6.37889 10.9445 6.27778 10.9445C6.17667 10.9445 6.07556 10.9212 5.98222 10.8823C5.88889 10.8434 5.80333 10.789 5.72556 10.719C5.65556 10.6412 5.60111 10.5556 5.56222 10.4623C5.52333 10.369 5.5 10.2678 5.5 10.1667C5.5 10.0656 5.52333 9.96451 5.56222 9.87118C5.60111 9.77785 5.65556 9.69229 5.72556 9.61451C5.80333 9.54451 5.88889 9.49007 5.98222 9.45118C6.16889 9.3734 6.38667 9.3734 6.57333 9.45118C6.66667 9.49007 6.75222 9.54451 6.83 9.61451C6.9 9.69229 6.95444 9.77785 6.99333 9.87118C7.03222 9.96451 7.05556 10.0656 7.05556 10.1667C7.05556 10.2678 7.03222 10.369 6.99333 10.4623ZM9.55222 10.719C9.47444 10.789 9.38889 10.8434 9.29556 10.8823C9.20222 10.9212 9.10111 10.9445 9 10.9445C8.89889 10.9445 8.79778 10.9212 8.70444 10.8823C8.61111 10.8434 8.52556 10.789 8.44778 10.719C8.30778 10.5712 8.22222 10.369 8.22222 10.1667C8.22222 9.96451 8.30778 9.76229 8.44778 9.61451C8.52556 9.54451 8.61111 9.49007 8.70444 9.45118C8.89111 9.36562 9.10889 9.36562 9.29556 9.45118C9.38889 9.49007 9.47444 9.54451 9.55222 9.61451C9.69222 9.76229 9.77778 9.96451 9.77778 10.1667C9.77778 10.369 9.69222 10.5712 9.55222 10.719Z" fill="url(#paint1_linear_4425_10902)"/>
<defs>
<linearGradient id="paint0_linear_4425_10902" x1="4.2" y1="15.1209" x2="16.1176" y2="5.17665" gradientUnits="userSpaceOnUse">
<stop stop-color="#326DE6"/>
<stop offset="1" stop-color="#4CB0F9"/>
</linearGradient>
<linearGradient id="paint1_linear_4425_10902" x1="4.2" y1="15.1209" x2="16.1176" y2="5.17665" gradientUnits="userSpaceOnUse">
<stop stop-color="#326DE6"/>
<stop offset="1" stop-color="#4CB0F9"/>
</linearGradient>
</defs>
</svg>
