<svg width="18" height="18" viewBox="0 0 18 18" fill="none" xmlns="http://www.w3.org/2000/svg">
<path d="M8.63156 1C6.53544 1 4.83135 2.70409 4.83135 4.80021C4.83135 6.85632 6.43944 8.52041 8.53555 8.59242C8.59956 8.58441 8.66356 8.58441 8.71156 8.59242C8.72756 8.59242 8.73556 8.59242 8.75156 8.59242C8.75956 8.59242 8.75956 8.59242 8.76757 8.59242C10.8157 8.52041 12.4238 6.85632 12.4318 4.80021C12.4318 2.70409 10.7277 1 8.63156 1Z" fill="url(#paint0_linear_4425_10903)"/>
<path d="M12.6965 10.7197C10.4644 9.23158 6.82421 9.23158 4.57609 10.7197C3.56003 11.3997 3 12.3197 3 13.3038C3 14.2879 3.56003 15.1999 4.56809 15.8719C5.68815 16.624 7.16023 17 8.63231 17C10.1044 17 11.5765 16.624 12.6965 15.8719C13.7046 15.1919 14.2646 14.2799 14.2646 13.2878C14.2566 12.3037 13.7046 11.3917 12.6965 10.7197Z" fill="url(#paint1_linear_4425_10903)"/>
<defs>
<linearGradient id="paint0_linear_4425_10903" x1="4.77015" y1="15.7429" x2="15.9214" y2="8.19102" gradientUnits="userSpaceOnUse">
<stop stop-color="#326DE6"/>
<stop offset="1" stop-color="#4CB0F9"/>
</linearGradient>
<linearGradient id="paint1_linear_4425_10903" x1="4.77015" y1="15.7429" x2="15.9214" y2="8.19102" gradientUnits="userSpaceOnUse">
<stop stop-color="#326DE6"/>
<stop offset="1" stop-color="#4CB0F9"/>
</linearGradient>
</defs>
</svg>
